<?xml version="1.0" encoding="utf-8"?>
<!-- Generator: Adobe Illustrator 26.0.1, SVG Export Plug-In . SVG Version: 6.00 Build 0)  -->
<svg version="1.1" id="Layer_1" xmlns="http://www.w3.org/2000/svg" xmlns:xlink="http://www.w3.org/1999/xlink" x="0px" y="0px"
	 viewBox="0 0 240 60" style="enable-background:new 0 0 240 60;" xml:space="preserve">
<style type="text/css">
	.st0{fill:#DFDFDF;}
</style>
<g>
	<g>
		<path class="st0" d="M47.6,12.9h24v5.4H53.8v7.9h11.8v5.4H53.8v8.9h18.3V46H47.6V12.9z"/>
		<path class="st0" d="M70.4,22.5h6.4l5.6,16.4l5.2-16.4h6.2L85.2,46h-5.7L70.4,22.5z"/>
		<path class="st0" d="M92.8,34.3c0-7.2,5-12.3,12.1-12.3S117,27.1,117,34.3c0,7.1-5.1,12.2-12.2,12.2
			C97.7,46.5,92.8,41.5,92.8,34.3z M110.7,34.4v-0.2c0-4.5-2.2-7.2-5.8-7.2c-3.6,0-5.8,2.7-5.8,7.2v0.2c0,4.4,2.1,7,5.7,7
			C108.4,41.4,110.7,38.8,110.7,34.4z"/>
		<path class="st0" d="M119.8,12.4h6.2V46h-6.2V12.4z"/>
		<path class="st0" d="M129.6,36.6V22.5h6.2v13.8c0,3.1,1.5,5,4.3,5c3.2,0,4.6-2.7,4.6-6.8v-12h6.2V46h-6.2v-3.3
			c-1.2,2.4-3.4,3.8-6.4,3.8C132.9,46.5,129.6,42.7,129.6,36.6z"/>
		<path class="st0" d="M156.5,39.8V27.5h-3.3v-5h3.3V18l6-3.4v7.8h4.6v5h-4.7v11.7c0,1.1,0.5,1.6,1.7,1.7h2.7V46H162
			C157.6,45.8,156.6,43.7,156.5,39.8z"/>
		<path class="st0" d="M170,13h6.4v6H170V13z M170.1,22.5h6.2V46h-6.2V22.5z"/>
		<path class="st0" d="M179.1,34.3c0-7.2,5-12.3,12.1-12.3s12.1,5.1,12.1,12.3c0,7.1-5.1,12.2-12.2,12.2
			C184,46.5,179.1,41.5,179.1,34.3z M197,34.4v-0.2c0-4.5-2.2-7.2-5.8-7.2s-5.8,2.7-5.8,7.2v0.2c0,4.4,2.1,7,5.7,7
			C194.8,41.4,197,38.8,197,34.4z"/>
		<path class="st0" d="M206.1,22.5h6.2v3.8c1.2-2.7,3.5-4.3,6.9-4.3c5.1,0,8.2,3.4,8.2,9.9V46h-6.2V32.2c0-3.3-1.2-5-4.1-5
			c-2.9,0-4.7,2.4-4.7,6.8v12h-6.2L206.1,22.5L206.1,22.5z"/>
	</g>
	<path class="st0" d="M38.8,50.4c-1.1,0-1.9-0.9-1.9-1.9c0-1.1,0.9-1.9,1.9-1.9c1.1,0,1.9,0.9,1.9,1.9S39.9,50.4,38.8,50.4 M38.8,46
		c-1.3,0-2.4,1.1-2.4,2.4c0,1.3,1.1,2.4,2.4,2.4c1.3,0,2.4-1.1,2.4-2.4S40.1,46,38.8,46"/>
	<g>
		<path class="st0" d="M37.1,16.6C31.4,9.1,21.2,7,12.7,11.5C16,19,18.5,27.8,34.9,28.3c1.9,0.1,4,0,6.4-0.2
			C41,23.4,39.3,19.6,37.1,16.6z"/>
		<path class="st0" d="M34.1,29.6c-9.8,0.5-14.4,4.1-17.3,8.5c-1.7,2.6-2.8,5.5-4,8.2c11.9,6.4,27.4-0.3,28.5-16.6
			C38.6,29.6,36.2,29.5,34.1,29.6z"/>
	</g>
	<g>
		<path class="st0" d="M37.9,48h-0.4v-0.2h1V48h-0.4v1h-0.3C37.9,49.1,37.9,48,37.9,48z"/>
		<path class="st0" d="M38.7,47.8h0.5l0.2,0.8l0.2-0.8h0.5v1.3h-0.3v-1l-0.3,1h-0.2l-0.3-1v1h-0.3L38.7,47.8L38.7,47.8z"/>
	</g>
</g>
</svg>
