<?xml version="1.0" encoding="utf-8"?>
<!-- Generator: Adobe Illustrator 26.0.1, SVG Export Plug-In . SVG Version: 6.00 Build 0)  -->
<svg version="1.1" id="Layer_1" xmlns="http://www.w3.org/2000/svg" xmlns:xlink="http://www.w3.org/1999/xlink" x="0px" y="0px"
	 viewBox="0 0 240 60" style="enable-background:new 0 0 240 60;" xml:space="preserve">
<style type="text/css">
	.st0{fill:#DFDFDF;}
</style>
<g>
	<path class="st0" d="M213.9,4.2c0.6-0.7,1.4-1,2.4-1c0.9,0,1.7,0.3,2.4,1c0.6,0.7,1,1.4,1,2.4c0,0.9-0.3,1.7-1,2.4
		c-0.6,0.7-1.4,1-2.4,1c-0.9,0-1.7-0.3-2.4-1c-0.6-0.7-1-1.4-1-2.4S213.2,4.8,213.9,4.2z M214.2,10c0.6,0.4,1.3,0.5,2,0.5
		s1.4-0.2,2-0.5c0.6-0.4,1.1-0.8,1.5-1.5c0.4-0.6,0.5-1.3,0.5-2s-0.2-1.4-0.5-2c-0.4-0.6-0.8-1.1-1.5-1.5c-0.6-0.4-1.3-0.5-2-0.5
		s-1.4,0.2-2,0.5c-0.6,0.4-1.1,0.8-1.5,1.5s-0.5,1.3-0.5,2s0.2,1.4,0.5,2C213.1,9.2,213.6,9.7,214.2,10z"/>
	<path class="st0" d="M215.3,5h0.8c0.4,0,0.7,0,0.8,0.1c0.2,0.1,0.2,0.3,0.2,0.5S217,6,216.9,6.1c-0.2,0.1-0.4,0.2-0.8,0.2h-0.8V5
		L215.3,5z M215.3,6.9h0.4c0.3,0,0.5,0.1,0.6,0.2c0.2,0.1,0.4,0.5,0.6,0.9l0.4,0.7h0.8l-0.5-0.8c-0.2-0.4-0.4-0.6-0.5-0.8
		c-0.1-0.2-0.3-0.3-0.5-0.3c0.4,0,0.7-0.2,0.9-0.4c0.2-0.2,0.3-0.5,0.3-0.8c0-0.2-0.1-0.4-0.2-0.6c-0.1-0.2-0.3-0.3-0.5-0.4
		s-0.6-0.1-1.1-0.1h-1.5v4.3h0.7L215.3,6.9L215.3,6.9z"/>
	<path class="st0" d="M210.4,14c0.1,1.9-0.1,3.8-0.7,5.8l-7,23.3c-0.3,1.1-0.8,2.1-1.3,3.1h1.3h5.6c5,0,11.1-4,12.4-8.9l3.9-12.7
		c0.7-2.7,0.2-5.5-1.4-7.5c-1.5-1.9-3.9-3.1-6.6-3.1C216.6,14,210.4,14,210.4,14z"/>
	<g>
		<path class="st0" d="M193.7,18.1h-11.1c-0.1,0-0.2,0-0.2,0.1l-7.3,23.4c0,0.2,0.1,0.3,0.2,0.3h11.2c0.1,0,0.1-0.1,0.2-0.1
			l7.2-23.4C193.9,18.2,193.8,18.1,193.7,18.1z"/>
		<path class="st0" d="M211.2,14.2c-0.1-2.8-1-5.4-2.6-7.6c-2.6-3.5-7.3-5.5-12.1-5.5h-49.8c-8,0-16.1,5.6-19.6,13.1
			c-0.4,0.8-0.7,1.6-1,2.5L119,40.2c-0.6,2-0.9,3.9-0.8,5.8c0.1,2.7,1,5.3,2.5,7.5c2.5,3.5,6.7,5.4,11.3,5.4h47h3.1
			c7.9,0,16.6-5.4,20.3-12.8c0.5-1,0.9-2,1.3-3.1l6.9-22.8C211.1,18.1,211.3,16.1,211.2,14.2z M144.1,53.6h-11.9
			c-6.5,0-10.2-5.4-8.2-11.9l7.5-23.9c2.1-6.6,9-11.5,15.5-11.5h22.8c0.1,0,0.2,0.1,0.2,0.3L166.4,18c-0.1,0.1-0.1,0.1-0.2,0.1
			h-22.8c-0.1,0-0.2,0.1-0.2,0.1l-7.3,23.3c0,0.1,0.1,0.3,0.2,0.3H147c0.1,0,0.2-0.1,0.2-0.1l2-6.6c0-0.1-0.1-0.3-0.2-0.3h-4.8
			c-0.1,0-0.2-0.1-0.2-0.3l3-9.2c0-0.1,0.1-0.1,0.2-0.1h16.7c0.1,0,0.2,0.1,0.2,0.3l-5,16.2C157,48.3,150.6,53.6,144.1,53.6z
			 M205.7,18.1l-7,23.2c-2.1,6.7-9.5,12.3-16.2,12.3h-10.9c-6.7,0-10.3-5.5-8.2-12.3l7.1-23.3c2.1-6.7,9.2-11.7,15.9-11.7h10.9
			C204,6.3,207.9,11.4,205.7,18.1z"/>
	</g>
	<g>
		<polygon class="st0" points="33.6,30.1 38.4,30.1 39.9,25.2 35.1,25.2 		"/>
		<polygon class="st0" points="67.3,30.1 72.1,30.1 73.6,25.2 68.8,25.2 		"/>
		<path class="st0" d="M30.3,14c-4.9,0-9.7,3.8-11,8.7l-4,13.2c-0.7,2.7-0.2,5.4,1.3,7.4c1.5,1.9,3.8,2.9,6.4,2.9h95.4
			c-0.1-1.9,0.1-3.9,0.8-5.9l7.3-23.8c0.3-0.8,0.6-1.6,1-2.5H30.3z M36.9,34.9h-4.6c-0.1,0-0.2,0-0.2,0.1l-1.4,4.5
			c0,0-0.1,0.1-0.2,0.1h-4.3c-0.1,0-0.2-0.2-0.2-0.3l5.7-18.8c0,0,0.1-0.1,0.2-0.1h9.5c2.6,0,4.1,2.2,3.3,4.9l-1.5,4.8
			C42.3,32.7,39.5,34.9,36.9,34.9z M56.7,39.8H42.6v-0.1l5.9-19.1c0-0.1,0.1-0.1,0.2-0.1H53c0.1,0,0.2,0.1,0.2,0.3L49,34.6
			c0,0.1,0.1,0.3,0.2,0.3h4.2c0.1,0,0.2-0.1,0.2-0.1l1.4-4.5c0-0.1,0.1-0.1,0.2-0.1h4.4c0.1,0,0.2,0.1,0.2,0.3l-2.9,9.2
			C56.9,39.8,56.8,39.8,56.7,39.8z M78.5,25.4l-4.4,14.3c0,0-0.1,0.1-0.2,0.1h-4.4c-0.1,0-0.2-0.2-0.2-0.3l1.7-5.4
			c0-0.2-0.1-0.3-0.2-0.3h-4.4c-0.1,0-0.2,0-0.2,0.1l-1.8,5.6c0,0-0.1,0.1-0.2,0.1h-4.3c-0.1,0-0.2-0.2-0.2-0.3L64,25.2
			c0.9-2.6,3.7-4.8,6.3-4.8h4.9C77.8,20.4,79.3,22.6,78.5,25.4z M93.9,30c-0.8,2.6-3.5,4.7-6,4.8c-0.1,0-0.2,0.1-0.2,0.1l-1.4,4.6
			c0,0.1-0.1,0.1-0.2,0.1h-4.4c-0.1,0-0.2-0.1-0.2-0.3l1.3-4.3c0-0.1-0.1-0.3-0.2-0.3c-2.5-0.1-3.8-2.3-3-4.8l2.9-9.4
			c0-0.1,0.1-0.1,0.2-0.1H87c0.1,0,0.2,0.1,0.2,0.3c-0.4,1.3-2.5,8.3-2.8,9.4h4.8c0.3-1,2.6-8.5,2.9-9.5c0-0.1,0.1-0.1,0.2-0.1h4.3
			c0.1,0,0.2,0.1,0.2,0.3L93.9,30z M99.6,20.5h5.5l-1.7,5.6h-5.5L99.6,20.5z M117.8,30.2l-2.9,9.5c0,0-0.1,0.1-0.2,0.1h-4.4
			c-0.1,0-0.2-0.2-0.2-0.3c0.4-1.2,2.2-7.3,2.8-9.3c-1.3,0-3.8,0-4.7,0c-0.5,1.6-2.6,8.4-2.9,9.4c0,0-0.1,0.1-0.2,0.1h-4.3
			c-0.1,0-0.2-0.2-0.2-0.3l2.8-9.4c0.9-2.6,3.7-4.8,6.3-4.8c0,0,5,0,5.1,0.2C117.3,25.6,118.6,27.7,117.8,30.2z"/>
	</g>
</g>
</svg>
